<svg width="22" height="19" viewBox="0 0 22 19" fill="none" xmlns="http://www.w3.org/2000/svg">
<path d="M1 6.40269H21M19.2143 17.9799H2.78571C2.31211 17.9799 1.85791 17.7766 1.52302 17.4147C1.18814 17.0529 1 16.5621 1 16.0503V2.92953C1 2.41779 1.18814 1.927 1.52302 1.56515C1.85791 1.20329 2.31211 1 2.78571 1H6.17366C6.52624 1.00001 6.87094 1.1128 7.16429 1.32416L8.40714 2.21946C8.70049 2.43082 9.04518 2.54362 9.39777 2.54363H19.2143C19.6879 2.54363 20.1421 2.74691 20.477 3.10877C20.8119 3.47063 21 3.96141 21 4.47316V16.0503C21 16.5621 20.8119 17.0529 20.477 17.4147C20.1421 17.7766 19.6879 17.9799 19.2143 17.9799Z" stroke="black" stroke-width="2" stroke-linecap="round" stroke-linejoin="round"/>
</svg>