<svg width="25" height="25" viewBox="0 0 25 25" fill="none" xmlns="http://www.w3.org/2000/svg">
<path d="M17.5833 2.99997C17.4624 2.87871 17.3187 2.7825 17.1605 2.71686C17.0023 2.65122 16.8327 2.61743 16.6615 2.61743C16.4902 2.61743 16.3206 2.65122 16.1624 2.71686C16.0042 2.7825 15.8605 2.87871 15.7396 2.99997L6.97917 11.7604C6.8826 11.8568 6.80599 11.9712 6.75372 12.0972C6.70144 12.2232 6.67454 12.3583 6.67454 12.4948C6.67454 12.6312 6.70144 12.7663 6.75372 12.8923C6.80599 13.0183 6.8826 13.1328 6.97917 13.2291L15.7396 21.9895C16.25 22.5 17.0729 22.5 17.5833 21.9895C18.0937 21.4791 18.0937 20.6562 17.5833 20.1458L9.9375 12.5L17.5937 4.84372C18.0937 4.3333 18.0937 3.51038 17.5833 2.99997Z" fill="#182B49"/>
</svg>
