<svg width="28" height="28" viewBox="0 0 28 28" fill="none" xmlns="http://www.w3.org/2000/svg">
<ellipse cx="13.8032" cy="13.5317" rx="12.8032" ry="12.5317" stroke="#0F405D" stroke-width="2"/>
<path d="M22.9493 13.6479C22.8766 13.5245 22.7792 13.4163 22.6627 13.3296C22.5463 13.2429 22.4131 13.1794 22.271 13.1429C21.6264 12.9838 20.9587 12.9304 20.2957 12.9851C20.6774 11.3574 20.4281 10.0729 20.1772 9.32416C20.0897 9.05966 19.9032 8.8361 19.6542 8.69709C19.4052 8.55808 19.1115 8.51358 18.8304 8.57225C17.9578 8.76121 17.1316 9.11255 16.3982 9.60663C15.8878 8.53469 15.1162 7.59802 14.1492 6.8767C13.9508 6.73236 13.7091 6.6543 13.4606 6.6543C13.2122 6.6543 12.9705 6.73236 12.7721 6.8767C11.8056 7.59834 11.0343 8.53494 10.5238 9.60663C9.79024 9.11237 8.96383 8.76101 8.09088 8.57225C7.80974 8.51365 7.51608 8.55829 7.2672 8.69747C7.01832 8.83664 6.83209 9.06036 6.74487 9.32495C6.49397 10.0737 6.24471 11.3582 6.62637 12.9859C5.96343 12.9312 5.29568 12.9846 4.65107 13.1437C4.50896 13.1802 4.37579 13.2437 4.25933 13.3303C4.14288 13.417 4.04546 13.5252 3.97275 13.6487C3.89634 13.7755 3.84687 13.9157 3.82723 14.0612C3.80758 14.2067 3.81816 14.3545 3.85834 14.496C4.12885 15.4649 4.96162 17.3064 7.48857 18.7669C10.0155 20.2273 12.2589 20.2257 13.461 20.2257C14.6632 20.2257 16.9033 20.2257 19.4319 18.7669C21.9605 17.308 22.7916 15.4649 23.0621 14.4952C23.1025 14.3538 23.1134 14.2061 23.094 14.0606C23.0746 13.9151 23.0255 13.7748 22.9493 13.6479ZM16.7693 10.5132C17.4421 10.0233 18.2147 9.67648 19.0363 9.49538C19.08 9.48678 19.1254 9.49412 19.1637 9.51599C19.2021 9.53785 19.2306 9.57268 19.2439 9.61373C19.5659 10.5779 19.8822 12.5725 18.3784 15.0972C17.7748 16.0931 17.0011 16.9833 16.0901 17.7301C16.7178 16.6752 17.2204 15.2495 17.2204 13.3749C17.228 12.4039 17.0758 11.438 16.7693 10.5132ZM7.67817 9.61609C7.69095 9.57461 7.71933 9.53923 7.75773 9.5169C7.79613 9.49457 7.84179 9.48689 7.88575 9.49538C8.70733 9.67648 9.47994 10.0233 10.1528 10.5132C9.84632 11.438 9.69405 12.4039 9.70168 13.3749C9.70168 15.2495 10.2043 16.6768 10.8303 17.7278C9.91911 16.9811 9.14541 16.0909 8.542 15.0949C7.03989 12.5725 7.35617 10.5779 7.67817 9.61609ZM7.99199 17.9534C5.7609 16.6666 5.03763 15.0799 4.80471 14.2451C4.7986 14.2239 4.79698 14.2018 4.79992 14.1799C4.80287 14.1581 4.81034 14.1371 4.82187 14.1181C4.83962 14.0876 4.86892 14.065 4.9036 14.055C5.56409 13.8965 6.25082 13.8678 6.92303 13.9706C7.13038 14.5249 7.38828 15.0603 7.6937 15.5706C8.53217 16.9676 9.67555 18.1716 11.0444 19.099C9.96526 18.8928 8.93205 18.5051 7.99199 17.9534ZM13.461 19.189C12.7517 18.6998 10.6824 16.964 10.6824 13.3749C10.6824 9.95378 12.5572 8.21957 13.363 7.63256C13.3913 7.61207 13.4257 7.601 13.461 7.601C13.4964 7.601 13.5308 7.61207 13.5591 7.63256C14.3649 8.21957 16.2397 9.95378 16.2397 13.3749C16.2397 16.9861 14.181 18.7006 13.461 19.189ZM22.1157 14.2483C21.8828 15.0799 21.1595 16.6666 18.9284 17.9566C17.9874 18.5071 16.9533 18.8935 15.8736 19.0983C17.2424 18.1708 18.3858 16.9668 19.2243 15.5699C19.5311 15.06 19.7903 14.5248 19.999 13.9706C20.672 13.8686 21.3593 13.8984 22.0201 14.0581C22.0548 14.0682 22.0841 14.0908 22.1018 14.1213C22.1131 14.1404 22.1203 14.1614 22.1229 14.1833C22.1256 14.2051 22.1237 14.2272 22.1174 14.2483H22.1157Z" fill="#0F405D"/>
</svg>
