<svg width="32" height="32" viewBox="0 0 32 32" fill="none" xmlns="http://www.w3.org/2000/svg">
<path d="M7.08823 25.9172C7.89933 24.0063 9.79307 22.666 11.9998 22.666H19.9998C22.2066 22.666 24.1003 24.0063 24.9114 25.9172M21.3332 12.666C21.3332 15.6115 18.9454 17.9993 15.9998 17.9993C13.0543 17.9993 10.6665 15.6115 10.6665 12.666C10.6665 9.7205 13.0543 7.33268 15.9998 7.33268C18.9454 7.33268 21.3332 9.7205 21.3332 12.666ZM29.3332 15.9993C29.3332 23.3631 23.3636 29.3327 15.9998 29.3327C8.63604 29.3327 2.6665 23.3631 2.6665 15.9993C2.6665 8.63555 8.63604 2.66602 15.9998 2.66602C23.3636 2.66602 29.3332 8.63555 29.3332 15.9993Z" stroke="#0F405D" stroke-width="2" stroke-linecap="round" stroke-linejoin="round"/>
</svg>