<svg width="26" height="26" viewBox="0 0 26 26" fill="none" xmlns="http://www.w3.org/2000/svg">
<circle cx="13" cy="13" r="13" fill="#FFFFFF"/>
<path d="M17.8789 12.6385C17.801 12.7174 17.7083 12.7799 17.6063 12.8227C17.5042 12.8654 17.3947 12.8874 17.2842 12.8874C17.1736 12.8874 17.0641 12.8654 16.9621 12.8227C16.8601 12.78 16.7675 12.7174 16.6896 12.6387L17.8789 12.6385ZM17.8789 12.6385L17.79 12.5507L17.8789 12.6385ZM13.8394 9.76539L16.6895 12.6385L17.8786 11.4427L13.5944 7.12385L13.5055 7.21173L13.5943 7.1237L13.5943 7.12374C13.5164 7.04498 13.4239 6.98243 13.3218 6.93973C13.2198 6.89701 13.1103 6.875 12.9997 6.875C12.8892 6.875 12.7797 6.89701 12.6776 6.93973C12.5756 6.98243 12.483 7.04498 12.4052 7.12374C12.4051 7.12377 12.4051 7.12381 12.405 7.12385L8.12077 11.4428C7.96329 11.6016 7.875 11.8167 7.875 12.0408C7.875 12.2649 7.96329 12.48 8.12077 12.6387C8.27828 12.7975 8.49212 12.8869 8.71531 12.8869C8.9385 12.8869 9.15235 12.7975 9.30986 12.6387L12.1613 9.76531V18.2801C12.1613 18.5039 12.2494 18.7187 12.4067 18.8772C12.5639 19.0357 12.7775 19.125 13.0003 19.125C13.2232 19.125 13.4367 19.0357 13.594 18.8772C13.7512 18.7187 13.8394 18.5039 13.8394 18.2801V9.76539Z" fill="#182B49" stroke="white" stroke-width="0.25"/>
</svg>